PathFileType	4	(X/Y/Z)	C:/Users/beibeiliu/ov580/test_trc/User3\sequence.24_training_dense_left.trc
DataRate	CameraRate	NumFrames	NumMarkers	Units	OrigDataRate	OrigDataStartFrame	OrigNumFrames
120	120	21	19	mm	120	207	275
Frame#	Time	ThumbCMC			ThumbMCP			ThumbIP			ThumbTip			IndexMCP			IndexPIP			IndexTip			MiddleMCP			MiddlePIP			MiddleTip			RingMCP			RingPIP			RingTip			PinkyMCP			PinkyPIP			PinkyTip			BackHand1			BackHand2			BackHand3	
		X0	Y0	Z0	X1	Y1	Z1	X2	Y2	Z2	X3	Y3	Z3	X4	Y4	Z4	X5	Y5	Z5	X6	Y6	Z6	X7	Y7	Z7	X8	Y8	Z8	X9	Y9	Z9	X10	Y10	Z10	X11	Y11	Z11	X12	Y12	Z12	X13	Y13	Z13	X14	Y14	Z14	X15	Y15	Z15	X16	Y16	Z16	X17	Y17	Z17	X18	Y18	Z18	
206	1.71667	-237.631	14.2067	-9.32104	-223.911	31.8256	-28.9358	-210.967	44.0485	-52.3177	-201.921	58.0725	-72.5373	-204.855	-1.02378	-73.5771	-187.611	21.7086	-90.7515	-169.664	40.5461	-93.7514	-185.528	-2.39412	-65.5277	-166.794	22.4373	-54.3313	-182.653	27.8099	-19.778	-171.063	-13.8629	-49.7709	-161.272	14.4064	-37.2232	-183.605	10.1757	-10.7375	-163.728	-21.2863	-34.021	-160.542	5.43626	-24.4751	-186.289	0.333263	-5.81109	-210.182	-43.5101	-19.491	-218.915	-46.6303	14.8242	-238.302	-22.9047	-15.2491	
207	1.725	-241.37	8.81497	-8.28815	-228.337	26.9795	-31.3474	-217.682	38.4569	-58.0734	-209.573	50.4222	-74.504	-210.314	-7.17637	-76.7986	-195.929	10.9823	-92.5931	-177.414	28.8119	-98.6281	-188.459	-10.5315	-66.6371	-172.712	16.7309	-59.6527	-185.838	22.7492	-21.4754	-177.946	-16.6072	-53.5246	-163.608	6.41507	-40.2656	-186.063	8.98078	-16.436	-162.894	-24.954	-35.4817	-161.378	1.21053	-25.7019	-185.545	-6.28887	-5.90905	-212.284	-47.2978	-16.3491	-221.096	-49.3608	13.1218	-241.232	-28.6221	-9.76664	
208	1.73333	-242.634	6.91618	-8.1112	-228.007	18.8422	-34.6827	-219.995	32.9815	-61.3319	-209.232	41.9428	-81.6117	-212.639	-16.644	-76.6166	-199.76	1.75452	-96.9356	-180.724	16.2857	-104.502	-193.026	-21.1553	-67.1136	-176.726	9.01999	-62.6184	-187.767	15.1519	-22.963	-178.172	-28.1098	-52.3852	-170.386	2.81035	-43.0307	-190.636	1.93169	-16.8835	-170.188	-31.5763	-39.571	-166.802	-4.99079	-29.4107	-184.722	-7.50941	-10.3972	-215.234	-51.252	-12.7096	-222.543	-50.6097	17.1347	-241.863	-32.9367	-9.19125	
209	1.74167	-241.828	4.10359	-10.5599	-228.849	15.9463	-35.0574	-217.716	23.6201	-66.7823	-209.054	30.5612	-83.5879	-218.058	-25.162	-75.1585	-199.596	-11.7753	-96.13	-178.56	1.94205	-107.838	-193.65	-31.0682	-66.9886	-175.221	-0.602323	-64.0059	-190.044	12.0208	-28.7292	-183.897	-35.8865	-53.6333	-169.612	-7.21467	-47.9437	-191.71	-3.34591	-19.6787	-170.071	-41.1008	-37.3102	-164.189	-14.645	-30.2591	-188.666	-15.2416	-10.2396	-217.869	-57.2875	-11.5083	-227.035	-51.1974	13.802	-245.418	-36.0707	-7.2783	
210	1.75	-241.186	-0.631494	-15.4747	-226.547	9.85419	-39.2173	-215.53	13.7261	-67.2336	-207.207	20.872	-89.1214	-218.927	-32.3952	-79.5719	-200.337	-21.9527	-99.9639	-179.663	-14.0121	-109.17	-195.11	-38.9827	-68.0873	-177.522	-13.5221	-68.2355	-187.817	1.16962	-28.4409	-182.477	-45.8988	-51.6181	-170.352	-19.3326	-49.5228	-189.224	-9.99712	-22.7151	-172.071	-53.5018	-35.6418	-164.61	-24.6377	-32.4295	-187.771	-19.193	-13.5985	-223.98	-61.0064	-8.2552	-228.363	-52.1363	21.9807	-246.796	-37.4486	-10.9496	
211	1.75833	-236.946	-2.77856	-14.1816	-222.336	2.79459	-43.2381	-211.824	8.7482	-71.3027	-202.01	11.3427	-87.2545	-219.406	-39.0933	-80.003	-200.439	-34.2619	-97.0285	-175.832	-26.556	-111.223	-196.833	-49.4144	-65.5323	-175.638	-24.6755	-67.3753	-184.956	-7.76911	-28.965	-182.704	-54.4042	-52.3175	-168.271	-27.8399	-45.5694	-189.845	-17.7711	-20.4329	-175.001	-61.0941	-37.3542	-165.709	-37.028	-33.721	-185.602	-25.2712	-14.6266	-224.787	-67.4249	-8.60706	-230.457	-56.2927	19.3955	-251.076	-37.2594	-11.0153	
212	1.76667	-235.217	0.304072	-17.775	-219.759	6.74901	-42.4728	-206.352	3.91049	-71.3862	-194.869	4.66792	-88.1617	-219.221	-42.6216	-78.7846	-201.385	-39.3686	-97.9136	-177.617	-33.8966	-111.667	-202.568	-51.5856	-66.1215	-172.809	-33.9688	-63.6322	-183.146	-12.7006	-31.0115	-188.997	-61.2981	-50.9689	-169.4	-35.8437	-44.3381	-184.491	-23.4285	-21.6295	-183.302	-69.4562	-33.4579	-166.644	-45.5103	-32.6223	-182.994	-34.3814	-10.6671	-228.664	-67.663	-7.0795	-235.535	-56.2846	21.93	-246.297	-38.2427	-9.95879	
213	1.775	-227.986	-2.04082	-12.715	-211.313	5.8307	-42.1634	-199.686	0.405715	-68.9613	-188.11	1.99695	-91.9668	-218.058	-44.2151	-79.6804	-200.658	-41.0347	-98.5507	-178.016	-42.4124	-108.588	-198.461	-55.0878	-67.5682	-173.136	-39.826	-65.4865	-177.152	-21.9001	-30.1733	-191.847	-66.2982	-49.9339	-168.59	-44.4536	-43.849	-182.553	-27.4925	-21.2861	-186.166	-72.7724	-35.1219	-169.86	-50.4166	-31.6682	-185.564	-36.3534	-7.82108	-233.057	-67.6229	-8.73982	-236.808	-55.0289	20.0501	-248.001	-30.726	-9.22821	
214	1.78333	-223.281	0.666016	-12.9665	-205.66	2.75587	-42.3709	-192.86	0.511498	-68.2695	-181.2	0.469275	-85.2126	-219.902	-40.1324	-80.014	-200.171	-42.4362	-97.0537	-174.933	-41.1501	-110.933	-204.579	-55.0423	-66.6469	-172.34	-38.571	-64.2324	-177.247	-21.8833	-29.4766	-194.866	-67.7304	-49.4069	-169.418	-52.1635	-43.0816	-184.123	-33.2622	-16.684	-190.035	-75.7639	-35.3726	-170.894	-54.5085	-27.6579	-187.113	-40.2671	-4.39289	-239.135	-63.7672	-12.8037	-240.229	-50.9107	17.7244	-248.432	-29.6634	-9.46702	
215	1.79167	-216.847	0.660624	-12.641	-199.278	5.02203	-38.6043	-185.141	3.04288	-64.8023	-173.574	2.45377	-80.4787	-220.522	-35.3593	-75.1353	-200.855	-39.2395	-96.2357	-176.999	-41.6557	-108.309	-202.43	-54.5234	-67.3916	-173.7	-44.1786	-65.3954	-174.86	-25.6652	-26.384	-195.272	-64.6082	-53.6863	-171.01	-55.7879	-40.6038	-181.744	-34.571	-17.1821	-191.795	-76.6933	-36.6337	-173.41	-59.0655	-28.3566	-188.196	-41.6603	-4.54747	-240.008	-59.8215	-12.9928	-244.699	-45.7162	17.5286	-246.875	-23.7815	-12.5695	
216	1.8	-210.515	3.8664	-6.36567	-190.738	4.47634	-37.1371	-176.625	5.06673	-60.1626	-165.19	1.27749	-79.9149	-217.66	-28.5355	-77.0042	-195.606	-35.6377	-98.6154	-175.085	-39.7286	-110.099	-206.108	-47.1479	-68.3885	-170.385	-44.0017	-62.8963	-174.199	-32.2851	-24.8822	-202.153	-62.5016	-51.6936	-173.408	-56.6004	-38.9595	-184.571	-35.9517	-14.4778	-198.725	-73.5468	-39.6711	-177.091	-62.0491	-28.242	-190.303	-43.3732	-5.27036	-244.31	-49.8629	-16.687	-244.484	-44.8165	14.8576	-242.293	-17.3469	-10.776	
217	1.80833	-200.374	7.12274	-8.42806	-181.28	4.98639	-33.5506	-166.95	3.18775	-54.4324	-156.46	-1.6496	-74.4713	-212.082	-19.956	-77.7326	-196.211	-28.4176	-95.7327	-171.855	-35.845	-109.926	-201.897	-44.5673	-70.433	-171.357	-46.0474	-62.1882	-173.122	-34.8035	-23.7124	-201.526	-59.1749	-53.8159	-177.123	-60.2611	-38.8292	-187.205	-36.6268	-13.0988	-206.729	-71.4448	-39.6736	-181.742	-67.1813	-26.5147	-196.032	-47.0054	-5.20317	-245.721	-40.426	-18.2303	-244.357	-36.2691	15.1685	-237.04	-9.55763	-9.55489	
218	1.81667	-191.642	4.85133	-4.30236	-172.127	2.67132	-26.4034	-158.352	0.31805	-52.5143	-145.294	-3.20959	-70.9607	-207.022	-12.9934	-74.5327	-191.416	-22.95	-94.5977	-168.319	-34.0485	-109.432	-202.447	-40.5113	-70.2104	-173.881	-49.3863	-61.6867	-175.698	-37.6083	-21.9257	-207.06	-55.0548	-54.4489	-178.415	-58.715	-39.5122	-187.348	-43.1192	-13.747	-213.374	-69.1617	-42.2455	-186.318	-63.9435	-30.4357	-197.305	-47.2573	-6.10522	-244.296	-31.1621	-18.1816	-246.017	-29.9548	13.2636	-231.71	-1.92159	-5.29155	
219	1.825	-184.456	1.71135	0.751061	-163.109	-0.171064	-22.1205	-149.329	-3.28172	-51.2988	-137.808	-8.64567	-64.269	-200.077	-6.71444	-71.9395	-185.972	-19.0775	-93.3962	-162.2	-34.2676	-108.761	-201.178	-33.8168	-67.8833	-174.383	-51.388	-61.6632	-175.663	-42.3829	-22.3135	-204.05	-52.0281	-57.1696	-181.18	-59.2427	-43.7857	-188.243	-42.8264	-12.7656	-213.922	-60.6972	-45.4768	-190.858	-68.5836	-32.4998	-196.781	-49.803	-10.2109	-240.34	-25.4241	-18.3432	-242.791	-21.6101	13.2043	-223.691	0.98106	-5.72001	
220	1.83333	-176.091	0.455984	5.0352	-156.103	-4.30677	-18.4247	-138.628	-6.49936	-42.4561	-129.991	-12.982	-62.24	-191.844	-5.23691	-69.6318	-175.252	-16.7633	-92.5632	-158.614	-29.4232	-106.448	-195.506	-27.7537	-66.977	-168.38	-48.9586	-61.4807	-171.916	-41.2426	-20.2322	-202.219	-49.1036	-58.2932	-182.676	-62.4379	-42.5907	-185.912	-45.7234	-14.2824	-211.393	-62.1056	-48.3208	-190.369	-67.776	-34.1538	-196.872	-47.4421	-9.84365	-237.199	-22.4083	-19.0831	-235.561	-18.3071	11.7847	-214.431	5.36728	-4.15042	
221	1.84167	-168.019	-1.40252	9.67321	-147.424	-7.98609	-15.2547	-130.595	-11.2704	-40.0451	-119.056	-16.7765	-57.1062	-183.352	-3.55445	-65.6657	-168.642	-14.0071	-87.5113	-151.285	-30.2044	-103.912	-187.738	-25.6372	-66.8713	-166.375	-51.9368	-58.9337	-170.008	-45.2196	-18.0962	-197.32	-42.7951	-56.6758	-179.131	-61.3833	-40.8702	-185.372	-45.0636	-10.7231	-207.592	-54.7824	-48.2304	-189.123	-66.8615	-32.843	-197.091	-50.0751	-6.81664	-228.804	-15.4487	-18.4937	-235	-15.9317	18.1088	-205.308	8.39032	-1.65033	
222	1.85	-162.927	-5.37335	13.5695	-140.68	-12.1661	-10.5451	-122.566	-14.8033	-34.1218	-110.424	-21.7146	-53.109	-171.8	0.527389	-60.5704	-157.069	-10.5071	-82.3817	-142.226	-26.5501	-99.1237	-181.489	-22.879	-62.3263	-159.537	-51.3852	-55.4879	-166.492	-47.9088	-15.7052	-190.629	-40.3151	-55.9425	-176.105	-61.5731	-40.7249	-182.346	-47.9621	-9.82135	-208.241	-49.764	-45.4076	-187.154	-65.7189	-30.2232	-195.488	-48.4292	-5.56566	-224.148	-11.8601	-16.8606	-226.553	-12.1151	17.1042	-200.079	5.99097	5.20342	
223	1.85833	-155.382	-7.39753	18.6708	-135.766	-17.2311	-0.0113897	-119.818	-20.6966	-24.7924	-102.429	-25.746	-42.4716	-160.213	1.57915	-57.224	-148.312	-10.3539	-79.1842	-133.805	-28.033	-96.7412	-174.033	-24.2986	-60.2994	-153.764	-50.1731	-55.1674	-159.493	-48.8128	-12.635	-184.711	-35.1993	-53.8787	-171.483	-59.484	-37.8125	-175.615	-47.2694	-10.1559	-198.523	-46.4903	-48.301	-182.246	-60.8512	-32.6737	-191.081	-46.3112	-6.12291	-214.108	-3.59653	-14.6214	-224.918	-8.28739	15.0771	-191.378	6.2925	7.30298	
224	1.86667	-151.295	-9.93133	21.855	-131.275	-17.5353	-0.488391	-107.423	-21.8366	-17.1209	-94.662	-27.3587	-35.533	-148.915	4.12091	-53.38	-135.518	-8.11624	-76.389	-120.126	-24.8843	-91.9317	-163.483	-22.0784	-58.5454	-149.265	-51.5518	-50.4829	-153.569	-48.2944	-10.3706	-180.087	-31.1668	-50.6363	-167.665	-58.8682	-36.974	-170.64	-45.0981	-8.00367	-194.677	-43.7322	-48.7635	-179.797	-61.169	-32.2959	-185.59	-42.8358	-5.18772	-209.436	-2.1347	-12.1582	-217.938	-4.19478	18.8887	-181.327	10.6231	9.79437	
225	1.875	-145.046	-9.39028	26.871	-122.417	-16.057	8.33721	-107.415	-20.86	-11.47	-88.4543	-24.4465	-33.4549	-140.484	6.36178	-51.408	-122.911	-3.69648	-70.7973	-115.779	-18.7382	-87.6608	-155.563	-13.6571	-53.1831	-144.263	-46.9474	-50.7459	-149.665	-48.539	-11.8187	-171.72	-30.8091	-52.1472	-158.024	-53.343	-36.7938	-166.983	-43.6766	-7.3931	-185.419	-37.1213	-46.8249	-173.805	-55.3339	-31.7479	-182.05	-40.2821	-4.24025	-202.417	2.75029	-10.0051	-211.343	-4.46875	21.7812	-175.729	10.5574	14.1214	
226	1.88333	-140.962	-9.62991	29.3393	-121.97	-17.0326	8.61763	-96.7762	-18.7085	-10.8869	-83.7124	-22.1687	-29.9292	-133.276	11.2246	-43.0827	-116.391	2.60117	-65.8834	-104.371	-10.7491	-82.7929	-148.183	-10.2156	-51.537	-136.701	-43.1207	-47.2414	-145.817	-45.2017	-9.28453	-162.746	-23.1617	-49.2328	-156.947	-49.4463	-36.8538	-162.026	-37.28	-4.90526	-181.762	-33.6218	-47.9813	-170.877	-52.0655	-30.7364	-174.882	-36.8604	-6.64694	-197.86	5.36945	-11.5698	-205.074	0.150863	21.0044	-173.58	11.4378	18.6219	
